<svg width="41" height="27" viewBox="0 0 41 27" fill="none" xmlns="http://www.w3.org/2000/svg">
<path d="M34.3569 2.0978L34.358 2.09659C35.6416 0.700199 37.7165 0.697063 39.0037 2.08718C39.6573 2.84082 39.9996 3.77626 39.9996 4.75248C39.9996 5.68719 39.6544 6.66761 39.0039 7.41755L22.8429 24.9513C22.1864 25.6236 21.3607 26 20.5054 26C19.6235 26 18.8108 25.6506 18.1781 24.9623L1.99818 7.3611C0.667198 5.9132 0.667198 3.49755 1.99818 2.04965C3.2847 0.650118 5.36603 0.650118 6.65255 2.04965L19.7691 16.3183L20.504 17.1179L21.2404 16.3195L34.3569 2.0978Z" fill="black" stroke="white" stroke-width="2"/>
</svg>
