<svg width="42" height="42" viewBox="0 0 42 42" fill="none" xmlns="http://www.w3.org/2000/svg">
<path fill-rule="evenodd" clip-rule="evenodd" d="M33.5715 8.59654L21 8.31218L8.42844 8.59654C6.09891 8.64923 4.12649 10.3303 3.70528 12.622C2.68727 18.161 2.68727 23.8391 3.70528 29.378C4.12649 31.6697 6.09891 33.3508 8.42844 33.4035L21 33.6879L33.5715 33.4035C35.901 33.3508 37.8734 31.6697 38.2946 29.378C39.3126 23.8391 39.3126 18.161 38.2946 12.622C37.8734 10.3303 35.901 8.64923 33.5715 8.59654ZM8.4878 11.2209L21 10.9379L33.5121 11.2209C34.5976 11.2454 35.5166 12.0287 35.7129 13.0966C35.9811 14.556 36.1744 16.0258 36.2928 17.5H5.70709C5.82548 16.0258 6.0188 14.556 6.28704 13.0966C6.4833 12.0287 7.40235 11.2454 8.4878 11.2209ZM5.56677 21C5.56677 23.6454 5.80686 26.2909 6.28704 28.9035C6.4833 29.9713 7.40235 30.7546 8.4878 30.7792L21 31.0622L33.5121 30.7792C34.5976 30.7546 35.5166 29.9713 35.7129 28.9035C36.1931 26.2909 36.4331 23.6454 36.4331 21H5.56677Z" fill="white"/>
</svg>
