<svg width="30" height="31" viewBox="0 0 30 31" fill="none" xmlns="http://www.w3.org/2000/svg">
<path d="M26.1005 10.8279C26.0881 9.89261 25.913 8.96665 25.5831 8.0914C25.2971 7.35313 24.8601 6.68266 24.3003 6.12281C23.7404 5.56295 23.07 5.12604 22.3317 4.83998C21.4677 4.51565 20.5549 4.34028 19.6323 4.32134C18.4443 4.26824 18.0677 4.25342 15.0521 4.25342C12.0366 4.25342 11.65 4.25342 10.4707 4.32134C9.54849 4.34042 8.63616 4.51579 7.77255 4.83998C7.03417 5.12584 6.36359 5.56268 5.80371 6.12256C5.24384 6.68244 4.80699 7.35302 4.52113 8.0914C4.19615 8.95474 4.02116 9.86728 4.00372 10.7896C3.95062 11.9788 3.93457 12.3554 3.93457 15.371C3.93457 18.3865 3.93457 18.7718 4.00372 19.9523C4.02225 20.876 4.19636 21.7874 4.52113 22.653C4.80747 23.3912 5.24464 24.0615 5.8047 24.6211C6.36477 25.1808 7.03541 25.6174 7.77379 25.9032C8.63503 26.2406 9.54752 26.4285 10.472 26.4589C11.6612 26.512 12.0378 26.528 15.0534 26.528C18.0689 26.528 18.4554 26.528 19.6347 26.4589C20.5574 26.4407 21.4702 26.2658 22.3342 25.9415C23.0722 25.6551 23.7425 25.2181 24.3024 24.6582C24.8622 24.0984 25.2992 23.4281 25.5856 22.6901C25.9104 21.8256 26.0845 20.9143 26.103 19.9894C26.1561 18.8014 26.1721 18.4248 26.1721 15.408C26.1697 12.3925 26.1697 12.0096 26.1005 10.8279V10.8279ZM15.0447 21.0736C11.8909 21.0736 9.3359 18.5187 9.3359 15.3648C9.3359 12.2109 11.8909 9.65598 15.0447 9.65598C16.5588 9.65598 18.0108 10.2574 19.0815 11.3281C20.1521 12.3987 20.7535 13.8507 20.7535 15.3648C20.7535 16.8789 20.1521 18.3309 19.0815 19.4015C18.0108 20.4721 16.5588 21.0736 15.0447 21.0736V21.0736ZM20.9807 10.776C20.8059 10.7762 20.6327 10.7419 20.4711 10.675C20.3095 10.6082 20.1627 10.5101 20.0391 10.3865C19.9154 10.2628 19.8174 10.116 19.7505 9.95444C19.6837 9.79286 19.6494 9.61968 19.6495 9.44482C19.6495 9.27009 19.684 9.09706 19.7508 8.93563C19.8177 8.7742 19.9157 8.62752 20.0393 8.50396C20.1628 8.38041 20.3095 8.2824 20.4709 8.21553C20.6324 8.14866 20.8054 8.11425 20.9801 8.11425C21.1549 8.11425 21.3279 8.14866 21.4893 8.21553C21.6507 8.2824 21.7974 8.38041 21.921 8.50396C22.0445 8.62752 22.1425 8.7742 22.2094 8.93563C22.2763 9.09706 22.3107 9.27009 22.3107 9.44482C22.3107 10.1808 21.7155 10.776 20.9807 10.776Z" fill="#323232"/>
<path d="M15.0449 19.0736C17.0929 19.0736 18.7532 17.4134 18.7532 15.3653C18.7532 13.3173 17.0929 11.657 15.0449 11.657C12.9968 11.657 11.3365 13.3173 11.3365 15.3653C11.3365 17.4134 12.9968 19.0736 15.0449 19.0736Z" fill="#323232"/>
</svg>
