<svg width="155" height="40" viewBox="0 0 155 40" fill="none" xmlns="http://www.w3.org/2000/svg">
<path d="M0.833652 15.7665H2.05562L2.7777 3.81872L6.70282 15.7665H10.017L13.6459 3.87404L14.4235 15.7665H17.571L16.5897 0.665825H13.4422L9.40598 13.9043L5.05501 0.665825H1.74087L0.833652 15.7665Z" fill="#323232"/>
<path d="M18.8439 15.7665H20.0288L21.3804 11.3967H27.0644L28.5086 15.7665H31.8227L26.8237 0.665825H23.5096L18.8439 15.7665ZM21.6951 10.3826L24.1206 2.50962L26.7311 10.3826H21.6951Z" fill="#323232"/>
<path d="M33.4665 15.7665H36.614V9.07355H38.0396L43.3163 15.7665H47.2229L41.4278 8.50197C43.0941 7.85664 44.0014 6.65817 44.0014 4.86969C44.0014 2.04867 41.724 0.665825 37.7989 0.665825H33.4665V15.7665ZM37.7989 1.67992C40.0207 1.67992 40.7613 2.50962 40.7613 4.85125C40.7613 7.19287 40.0207 8.05946 37.7989 8.05946H36.614V1.67992H37.7989Z" fill="#323232"/>
<path d="M52.0075 15.7665V9.51606L53.0258 8.4651L58.7839 15.7665H62.6905L55.118 6.25254L60.4502 0.665825H58.858L52.0075 8.00415V0.665825H48.86V15.7665H52.0075Z" fill="#323232"/>
<path d="M64.47 15.7665H74.3939V14.6603H67.6175V8.48353H73.1719V7.41413H67.6175V1.7721H74.2458V0.665825H64.47V15.7665Z" fill="#323232"/>
<path d="M76.0368 0.665825V1.7721H82.1466V15.7665H85.2941V1.7721H91.404V0.665825H76.0368Z" fill="#323232"/>
<path d="M96.5609 15.7665V9.07355H97.7459C101.671 9.07355 103.948 7.6907 103.948 4.86969C103.948 2.04867 101.671 0.665825 97.7459 0.665825H93.4134V15.7665H96.5609ZM97.7459 1.67992C99.9677 1.67992 100.708 2.50962 100.708 4.85125C100.708 7.19287 99.9677 8.05946 97.7459 8.05946H96.5609V1.67992H97.7459Z" fill="#323232"/>
<path d="M106.247 15.7665H116.171V14.6603H109.394V0.665825H106.247V15.7665Z" fill="#323232"/>
<path d="M116.987 15.7665H118.172L119.524 11.3967H125.208L126.652 15.7665H129.966L124.967 0.665825H121.653L116.987 15.7665ZM119.838 10.3826L122.264 2.50962L124.874 10.3826H119.838Z" fill="#323232"/>
<path d="M141.823 13.3696C141.823 13.3696 140.786 14.9368 137.731 14.9368C135.62 14.9368 133.732 13.554 133.732 8.13321C133.732 2.71244 135.639 1.49553 137.731 1.49553C140.619 1.49553 141.6 3.15495 141.6 3.15495L142.526 2.12243C142.526 2.12243 140.934 0.481445 137.731 0.481445C135.083 0.481445 130.306 2.12243 130.306 8.13321C130.306 14.144 135.065 15.9509 137.731 15.9509C140.971 15.9509 142.841 14.5128 142.841 14.5128L141.823 13.3696Z" fill="#323232"/>
<path d="M144.898 15.7665H154.822V14.6603H148.046V8.48353H153.6V7.41413H148.046V1.7721H154.674V0.665825H144.898V15.7665Z" fill="#323232"/>
<path d="M22.0753 39.3151H23.3826L24.8737 34.494H31.1447L32.738 39.3151H36.3944L30.8792 22.655H27.2228L22.0753 39.3151ZM25.221 33.3752L27.8969 24.6892L30.777 33.3752H25.221Z" fill="black"/>
<path d="M22.0753 39.3151H23.3826L24.8737 34.494H31.1447L32.738 39.3151H36.3944L30.8792 22.655H27.2228L22.0753 39.3151ZM25.221 33.3752L27.8969 24.6892L30.777 33.3752H25.221Z" fill="url(#paint0_linear_2_305)"/>
<path d="M49.4754 36.6706C49.4754 36.6706 48.3315 38.3997 44.9611 38.3997C42.6324 38.3997 40.5489 36.874 40.5489 30.8935C40.5489 24.913 42.6529 23.5704 44.9611 23.5704C48.1476 23.5704 49.2302 25.4012 49.2302 25.4012L50.2516 24.262C50.2516 24.262 48.4949 22.4516 44.9611 22.4516C42.0401 22.4516 36.77 24.262 36.77 30.8935C36.77 37.525 42.0196 39.5185 44.9611 39.5185C48.5357 39.5185 50.5988 37.9318 50.5988 37.9318L49.4754 36.6706Z" fill="black"/>
<path d="M49.4754 36.6706C49.4754 36.6706 48.3315 38.3997 44.9611 38.3997C42.6324 38.3997 40.5489 36.874 40.5489 30.8935C40.5489 24.913 42.6529 23.5704 44.9611 23.5704C48.1476 23.5704 49.2302 25.4012 49.2302 25.4012L50.2516 24.262C50.2516 24.262 48.4949 22.4516 44.9611 22.4516C42.0401 22.4516 36.77 24.262 36.77 30.8935C36.77 37.525 42.0196 39.5185 44.9611 39.5185C48.5357 39.5185 50.5988 37.9318 50.5988 37.9318L49.4754 36.6706Z" fill="url(#paint1_linear_2_305)"/>
<path d="M51.3977 39.3151H52.705L54.1961 34.494H60.4671L62.0604 39.3151H65.7167L60.2016 22.655H56.5452L51.3977 39.3151ZM54.5434 33.3752L57.2193 24.6892L60.0994 33.3752H54.5434Z" fill="black"/>
<path d="M51.3977 39.3151H52.705L54.1961 34.494H60.4671L62.0604 39.3151H65.7167L60.2016 22.655H56.5452L51.3977 39.3151ZM54.5434 33.3752L57.2193 24.6892L60.0994 33.3752H54.5434Z" fill="url(#paint2_linear_2_305)"/>
<path d="M67.5302 22.655V39.3151H74.414C77.335 39.3151 82.5846 37.525 82.5846 30.8935C82.5846 24.262 77.335 22.655 74.414 22.655H67.5302ZM71.0028 38.1963V23.7738H74.414C76.7222 23.7738 78.9079 24.8926 78.9079 30.8732C78.9079 36.8537 76.7222 38.1963 74.414 38.1963H71.0028Z" fill="black"/>
<path d="M67.5302 22.655V39.3151H74.414C77.335 39.3151 82.5846 37.525 82.5846 30.8935C82.5846 24.262 77.335 22.655 74.414 22.655H67.5302ZM71.0028 38.1963V23.7738H74.414C76.7222 23.7738 78.9079 24.8926 78.9079 30.8732C78.9079 36.8537 76.7222 38.1963 74.414 38.1963H71.0028Z" fill="url(#paint3_linear_2_305)"/>
<path d="M85.4702 39.3151H96.4189V38.0945H88.9427V31.28H95.0707V30.1002H88.9427V23.8755H96.2555V22.655H85.4702V39.3151Z" fill="black"/>
<path d="M85.4702 39.3151H96.4189V38.0945H88.9427V31.28H95.0707V30.1002H88.9427V23.8755H96.2555V22.655H85.4702V39.3151Z" fill="url(#paint4_linear_2_305)"/>
<path d="M98.7421 39.3151H100.09L100.887 26.1335L105.217 39.3151H108.874L112.877 26.1945L113.735 39.3151H117.208L116.125 22.655H112.653L108.2 37.2605L103.399 22.655H99.743L98.7421 39.3151Z" fill="black"/>
<path d="M98.7421 39.3151H100.09L100.887 26.1335L105.217 39.3151H108.874L112.877 26.1945L113.735 39.3151H117.208L116.125 22.655H112.653L108.2 37.2605L103.399 22.655H99.743L98.7421 39.3151Z" fill="url(#paint5_linear_2_305)"/>
<path d="M119.94 39.3151H123.31V22.655H119.94V39.3151Z" fill="black"/>
<path d="M119.94 39.3151H123.31V22.655H119.94V39.3151Z" fill="url(#paint6_linear_2_305)"/>
<path d="M138.759 36.6706C138.759 36.6706 137.615 38.3997 134.245 38.3997C131.916 38.3997 129.833 36.874 129.833 30.8935C129.833 24.913 131.937 23.5704 134.245 23.5704C137.431 23.5704 138.514 25.4012 138.514 25.4012L139.535 24.262C139.535 24.262 137.779 22.4516 134.245 22.4516C131.324 22.4516 126.054 24.262 126.054 30.8935C126.054 37.525 131.303 39.5185 134.245 39.5185C137.819 39.5185 139.883 37.9318 139.883 37.9318L138.759 36.6706Z" fill="black"/>
<path d="M138.759 36.6706C138.759 36.6706 137.615 38.3997 134.245 38.3997C131.916 38.3997 129.833 36.874 129.833 30.8935C129.833 24.913 131.937 23.5704 134.245 23.5704C137.431 23.5704 138.514 25.4012 138.514 25.4012L139.535 24.262C139.535 24.262 137.779 22.4516 134.245 22.4516C131.324 22.4516 126.054 24.262 126.054 30.8935C126.054 37.525 131.303 39.5185 134.245 39.5185C137.819 39.5185 139.883 37.9318 139.883 37.9318L138.759 36.6706Z" fill="url(#paint7_linear_2_305)"/>
<path d="M140.681 39.3151H141.989L143.48 34.494H149.751L151.344 39.3151H155L149.485 22.655H145.829L140.681 39.3151ZM143.827 33.3752L146.503 24.6892L149.383 33.3752H143.827Z" fill="black"/>
<path d="M140.681 39.3151H141.989L143.48 34.494H149.751L151.344 39.3151H155L149.485 22.655H145.829L140.681 39.3151ZM143.827 33.3752L146.503 24.6892L149.383 33.3752H143.827Z" fill="url(#paint8_linear_2_305)"/>
<path d="M0.255555 28.4562H17.1465C17.3586 28.4562 17.3901 28.3562 17.2177 28.233L9.01516 22.4191C8.84284 22.2976 8.56116 22.2976 8.38718 22.4191L0.184163 28.233C0.0118436 28.3562 0.04346 28.4562 0.255555 28.4562ZM2.09163 27.6282L8.38668 23.167C8.56069 23.0436 8.84237 23.0436 9.01466 23.167L15.3084 27.6282C15.4824 27.7499 15.4494 27.8484 15.2371 27.8484L2.16606 27.8482C1.95396 27.8482 1.92067 27.7499 2.09163 27.6282Z" fill="url(#paint9_linear_2_305)"/>
<path d="M4.1183 29.8987C4.25896 29.8987 4.37356 29.7278 4.37356 29.5175V29.2923C4.37356 29.0819 4.19955 28.9092 3.98745 28.9092H1.84314C1.63273 28.9092 1.45872 29.0819 1.45872 29.2923V29.5175C1.45872 29.7278 1.57298 29.8987 1.71398 29.8987C1.85651 29.8987 1.97077 30.0697 1.97077 30.2799V35.3053C1.97077 35.5157 1.85651 35.6883 1.71398 35.6883C1.57298 35.6883 1.45872 35.8592 1.45872 36.0695V36.2931C1.45872 36.5034 1.63273 36.6759 1.84314 36.6759H3.98728C4.19937 36.6759 4.37338 36.5034 4.37338 36.2931V36.0695C4.37338 35.8592 4.25879 35.6883 4.11813 35.6883C3.97712 35.6883 3.86117 35.5157 3.86117 35.3053L3.861 30.2799C3.86134 30.0699 3.9773 29.8987 4.1183 29.8987Z" fill="url(#paint10_linear_2_305)"/>
<path d="M8.004 29.8987C8.14653 29.8987 8.26096 29.7278 8.26096 29.5175V29.2923C8.26096 29.0819 8.08695 28.9092 7.87485 28.9092H5.73054C5.51844 28.9092 5.34443 29.0819 5.34443 29.2923V29.5175C5.34443 29.7278 5.46038 29.8987 5.60138 29.8987C5.74239 29.8987 5.85647 30.0697 5.85647 30.2799V35.3053C5.85647 35.5157 5.74222 35.6883 5.60138 35.6883C5.46072 35.6883 5.34443 35.8592 5.34443 36.0695V36.2931C5.34443 36.5034 5.51844 36.6759 5.73054 36.6759H7.87467C8.08677 36.6759 8.26078 36.5034 8.26078 36.2931V36.0695C8.26078 35.8592 8.14619 35.6883 8.00383 35.6883C7.86283 35.6883 7.74687 35.5157 7.74687 35.3053V30.2799C7.74738 30.0699 7.86334 29.8987 8.004 29.8987Z" fill="url(#paint11_linear_2_305)"/>
<path d="M11.8919 29.8987C12.0344 29.8987 12.1471 29.7278 12.1471 29.5175V29.2923C12.1471 29.0819 11.9731 28.9092 11.7627 28.9092H9.61858C9.40649 28.9092 9.23247 29.0819 9.23247 29.2923V29.5175C9.23247 29.7278 9.34673 29.8987 9.48943 29.8987C9.62874 29.8987 9.74452 30.0697 9.74452 30.2799V35.3053C9.74452 35.5157 9.62857 35.6883 9.48943 35.6883C9.3469 35.6883 9.23247 35.8592 9.23247 36.0695V36.2931C9.23247 36.5034 9.40648 36.6759 9.61858 36.6759H11.7627C11.9731 36.6759 12.1471 36.5034 12.1471 36.2931V36.0695C12.1471 35.8592 12.0342 35.6883 11.8919 35.6883C11.7509 35.6883 11.6349 35.5157 11.6349 35.3053V30.2799C11.6349 30.0699 11.7509 29.8987 11.8919 29.8987Z" fill="url(#paint12_linear_2_305)"/>
<path d="M15.7793 29.8987C15.9183 29.8987 16.0346 29.7278 16.0346 29.5175V29.2923C16.0346 29.0819 15.8606 28.9092 15.6502 28.9092H13.506C13.2939 28.9092 13.1182 29.0819 13.1182 29.2923V29.5175C13.1182 29.7278 13.2342 29.8987 13.3767 29.8987C13.5143 29.8987 13.6301 30.0697 13.6301 30.2799V35.3053C13.6301 35.5157 13.5141 35.6883 13.3767 35.6883C13.2342 35.6883 13.1182 35.8592 13.1182 36.0695V36.2931C13.1182 36.5034 13.2939 36.6759 13.506 36.6759H15.6502C15.8606 36.6759 16.0346 36.5034 16.0346 36.2931V36.0695C16.0346 35.8592 15.9183 35.6883 15.7793 35.6883C15.6368 35.6883 15.5224 35.5157 15.5224 35.3053V30.2799C15.5227 30.0699 15.637 29.8987 15.7793 29.8987Z" fill="url(#paint13_linear_2_305)"/>
<path d="M17.198 38.6642C17.0851 38.6642 16.9942 38.5489 16.9942 38.4077C16.9942 38.2701 16.8813 38.1531 16.7458 38.1531C16.6081 38.1531 16.4956 38.0395 16.4956 37.8983C16.4956 37.757 16.3927 37.642 16.2654 37.642C16.1377 37.642 16.0352 37.5267 16.0352 37.3872C16.0352 37.2477 15.8611 37.1324 15.6507 37.1324L1.75329 37.1322C1.54119 37.1322 1.36718 37.2476 1.36718 37.387C1.36718 37.5265 1.26291 37.6418 1.13697 37.6418C1.01103 37.6418 0.906763 37.7571 0.906763 37.8981C0.906763 38.0391 0.795552 38.1529 0.658272 38.1529C0.519301 38.1529 0.408091 38.2696 0.408091 38.4076C0.408091 38.5491 0.317021 38.6641 0.204289 38.6641C0.0930785 38.6641 0.000488281 38.779 0.000488281 38.92C0.000488281 39.0615 0.174498 39.1765 0.386598 39.1765H17.018C17.23 39.1765 17.4024 39.0612 17.4024 38.92C17.402 38.7792 17.3106 38.6642 17.198 38.6642Z" fill="url(#paint14_linear_2_305)"/>
<path d="M2.80096 27.6476H14.6015C14.8136 27.6476 14.8468 27.5489 14.6728 27.424L9.0156 23.4143C8.84328 23.293 8.56159 23.293 8.38761 23.4143L2.73 27.424C2.55599 27.5489 2.5887 27.6476 2.80096 27.6476Z" fill="url(#paint15_linear_2_305)"/>
<defs>
<linearGradient id="paint0_linear_2_305" x1="-5.23264" y1="14.4905" x2="15.0579" y2="-29.0546" gradientUnits="userSpaceOnUse">
<stop stop-color="#5042AF"/>
<stop offset="1" stop-color="#6742D1"/>
</linearGradient>
<linearGradient id="paint1_linear_2_305" x1="-5.23264" y1="14.4905" x2="15.0579" y2="-29.0546" gradientUnits="userSpaceOnUse">
<stop stop-color="#5042AF"/>
<stop offset="1" stop-color="#6742D1"/>
</linearGradient>
<linearGradient id="paint2_linear_2_305" x1="-5.23264" y1="14.4905" x2="15.0579" y2="-29.0546" gradientUnits="userSpaceOnUse">
<stop stop-color="#5042AF"/>
<stop offset="1" stop-color="#6742D1"/>
</linearGradient>
<linearGradient id="paint3_linear_2_305" x1="-5.23264" y1="14.4905" x2="15.0579" y2="-29.0546" gradientUnits="userSpaceOnUse">
<stop stop-color="#5042AF"/>
<stop offset="1" stop-color="#6742D1"/>
</linearGradient>
<linearGradient id="paint4_linear_2_305" x1="-5.23264" y1="14.4905" x2="15.0579" y2="-29.0546" gradientUnits="userSpaceOnUse">
<stop stop-color="#5042AF"/>
<stop offset="1" stop-color="#6742D1"/>
</linearGradient>
<linearGradient id="paint5_linear_2_305" x1="-5.23264" y1="14.4905" x2="15.0579" y2="-29.0546" gradientUnits="userSpaceOnUse">
<stop stop-color="#5042AF"/>
<stop offset="1" stop-color="#6742D1"/>
</linearGradient>
<linearGradient id="paint6_linear_2_305" x1="-5.23264" y1="14.4905" x2="15.0579" y2="-29.0546" gradientUnits="userSpaceOnUse">
<stop stop-color="#5042AF"/>
<stop offset="1" stop-color="#6742D1"/>
</linearGradient>
<linearGradient id="paint7_linear_2_305" x1="-5.23264" y1="14.4905" x2="15.0579" y2="-29.0546" gradientUnits="userSpaceOnUse">
<stop stop-color="#5042AF"/>
<stop offset="1" stop-color="#6742D1"/>
</linearGradient>
<linearGradient id="paint8_linear_2_305" x1="-5.23264" y1="14.4905" x2="15.0579" y2="-29.0546" gradientUnits="userSpaceOnUse">
<stop stop-color="#5042AF"/>
<stop offset="1" stop-color="#6742D1"/>
</linearGradient>
<linearGradient id="paint9_linear_2_305" x1="2.20736" y1="24.875" x2="4.90254" y2="20.7765" gradientUnits="userSpaceOnUse">
<stop stop-color="#6557C6"/>
<stop offset="1" stop-color="#7D56EC"/>
</linearGradient>
<linearGradient id="paint10_linear_2_305" x1="2.20736" y1="24.875" x2="4.90254" y2="20.7765" gradientUnits="userSpaceOnUse">
<stop stop-color="#6557C6"/>
<stop offset="1" stop-color="#7D56EC"/>
</linearGradient>
<linearGradient id="paint11_linear_2_305" x1="2.20736" y1="24.875" x2="4.90254" y2="20.7765" gradientUnits="userSpaceOnUse">
<stop stop-color="#6557C6"/>
<stop offset="1" stop-color="#7D56EC"/>
</linearGradient>
<linearGradient id="paint12_linear_2_305" x1="2.20736" y1="24.875" x2="4.90254" y2="20.7765" gradientUnits="userSpaceOnUse">
<stop stop-color="#6557C6"/>
<stop offset="1" stop-color="#7D56EC"/>
</linearGradient>
<linearGradient id="paint13_linear_2_305" x1="2.20736" y1="24.875" x2="4.90254" y2="20.7765" gradientUnits="userSpaceOnUse">
<stop stop-color="#6557C6"/>
<stop offset="1" stop-color="#7D56EC"/>
</linearGradient>
<linearGradient id="paint14_linear_2_305" x1="2.20736" y1="24.875" x2="4.90254" y2="20.7765" gradientUnits="userSpaceOnUse">
<stop stop-color="#6557C6"/>
<stop offset="1" stop-color="#7D56EC"/>
</linearGradient>
<linearGradient id="paint15_linear_2_305" x1="2.20736" y1="24.875" x2="4.90254" y2="20.7765" gradientUnits="userSpaceOnUse">
<stop stop-color="#6557C6"/>
<stop offset="1" stop-color="#7D56EC"/>
</linearGradient>
</defs>
</svg>
