<svg width="35" height="39" viewBox="0 0 35 39" fill="none" xmlns="http://www.w3.org/2000/svg">
<path d="M17.3282 20.5768C22.4354 20.5768 26.5897 15.1565 26.5897 10.0496C26.5897 4.94303 22.4355 0.787354 17.3282 0.787354C12.2209 0.787354 8.06593 4.94296 8.06593 10.0496C8.06682 15.1559 12.221 20.5768 17.3282 20.5768Z" fill="#F6F6F6"/>
<path d="M24.281 20.6714C22.4844 22.0401 20.2433 22.8545 17.8157 22.8545H16.8405C14.4123 22.8545 12.1707 22.0398 10.3746 20.6714C4.50902 21.6196 0.029892 26.704 0.029892 32.8366C0.029892 36.2057 7.77443 38.9379 17.3281 38.9379C26.8818 38.9379 34.6264 36.2057 34.6264 32.8366C34.6264 26.7037 30.1466 21.6191 24.2809 20.6714H24.281Z" fill="#F6F6F6"/>
</svg>
