<svg width="78" height="79" viewBox="0 0 78 79" fill="none" xmlns="http://www.w3.org/2000/svg">
<path d="M33.9678 44.2285L23.9032 34.1639L18.5686 39.4985L31.3001 52.2299C32.0082 52.9363 32.9674 53.3339 33.9678 53.3339C34.9673 53.3339 35.9265 52.9364 36.6346 52.2299L59.4301 29.4345L54.0955 24.1008L33.9678 44.2285Z" fill="#15B912"/>
<path d="M64.161 0.5H13.839C10.1691 0.5 6.64924 1.95848 4.05339 4.55339C1.45844 7.14924 0 10.6691 0 14.339V64.661C0 68.3309 1.45848 71.8508 4.05339 74.4466C6.64924 77.0416 10.1691 78.5 13.839 78.5H64.161C67.8309 78.5 71.3508 77.0415 73.9466 74.4466C76.5416 71.8508 78 68.3309 78 64.661V14.339C78 10.6691 76.5415 7.14924 73.9466 4.55339C71.3508 1.95844 67.8309 0.5 64.161 0.5ZM70.4512 64.6606C70.4512 66.3288 69.7887 67.9286 68.6093 69.1089C67.429 70.2883 65.8292 70.9509 64.161 70.9509H13.839C12.1707 70.9509 10.5709 70.2883 9.39063 69.1089C8.21121 67.9286 7.54866 66.3288 7.54866 64.6606V14.3386C7.54866 12.6703 8.21121 11.0705 9.39063 9.89022C10.5709 8.7108 12.1707 8.04826 13.839 8.04826H64.161C65.8292 8.04826 67.429 8.7108 68.6093 9.89022C69.7887 11.0705 70.4512 12.6703 70.4512 14.3386V64.6606Z" fill="#323232"/>
</svg>
