<svg width="60" height="41" viewBox="0 0 60 41" fill="none" xmlns="http://www.w3.org/2000/svg">
<path d="M5.82936 0C2.62523 0 0 2.62524 0 5.82936V34.9755C0 38.1796 2.62523 40.8049 5.82936 40.8049H53.9205C57.1246 40.8049 59.7499 38.1796 59.7499 34.9755V5.82936C59.7499 2.62524 57.1246 0 53.9205 0H5.82936ZM5.82936 2.91436H53.9205C54.3413 2.91436 54.7241 3.01194 55.0819 3.16493L31.696 24.0448C30.5915 25.0313 29.2049 25.0313 28.0985 24.0448L4.66713 3.16493C5.02444 3.01245 5.40717 2.91436 5.82853 2.91436H5.82936ZM2.93726 5.53295L19.6963 20.4704L3.23392 36.2951C3.04128 35.9028 2.91524 35.4499 2.91524 34.9742V5.82806C2.91524 5.7259 2.92845 5.63085 2.9376 5.53225L2.93726 5.53295ZM56.8121 5.53295C56.8217 5.63207 56.8344 5.72711 56.8344 5.82876V34.9749C56.8344 35.4506 56.7084 35.9035 56.5158 36.2953L40.0976 20.4471L56.8111 5.53313L56.8121 5.53295ZM37.9126 22.4065L53.9885 37.8904C53.9652 37.8909 53.9433 37.8904 53.9199 37.8904H5.82879C5.80541 37.8904 5.78356 37.8909 5.76018 37.8904L21.8816 22.4299L26.1622 26.2328C28.2944 28.1337 31.4996 28.1363 33.6307 26.2328L37.9112 22.4077L37.9126 22.4065Z" fill="black"/>
</svg>
