<svg width="49" height="49" viewBox="0 0 49 49" fill="none" xmlns="http://www.w3.org/2000/svg">
<path fill-rule="evenodd" clip-rule="evenodd" d="M18.511 26.6778C13.6112 24.5002 11.4331 23.4109 11.4331 23.4109C28.8554 16.8777 37.5665 13.0665 37.5665 13.0665C34.2996 28.3109 32.6667 35.9331 32.6667 35.9331C25.5888 30.4887 22.3222 28.3111 22.3222 28.3111C29.4001 21.2332 32.6667 17.9667 32.6667 17.9667C23.4112 23.9558 18.511 26.6778 18.511 26.6778ZM11.9778 0H37.0222C43.5555 0 49 5.44444 49 11.9778V37.0222C49 43.5555 43.5556 49 37.0222 49H11.9778C5.44454 49 0 43.5556 0 37.0222V11.9778C0 5.44454 5.44445 0 11.9778 0ZM13.6112 2.72222H35.389C41.3781 2.72222 46.2779 7.62203 46.2779 13.6111V35.3889C46.2779 41.378 41.3781 46.2778 35.389 46.2778H13.6112C7.62213 46.2778 2.72232 41.378 2.72232 35.3889V13.6111C2.72232 7.62203 7.62213 2.72222 13.6112 2.72222Z" fill="black"/>
</svg>
