<svg width="27" height="41" viewBox="0 0 27 41" fill="none" xmlns="http://www.w3.org/2000/svg">
<path d="M20.2716 0.429688H6.23165C4.65216 0.430876 3.13778 1.04903 2.02112 2.14845C0.904453 3.24782 0.276565 4.73868 0.27533 6.29379V35.0212C0.276536 36.5762 0.904414 38.0671 2.02112 39.1665C3.13778 40.2659 4.65208 40.884 6.23165 40.8853H20.2716C21.8511 40.8841 23.3655 40.2659 24.4822 39.1665C25.5988 38.0671 26.2267 36.5763 26.228 35.0212V6.29379C26.2267 4.73875 25.5989 3.24782 24.4822 2.14845C23.3655 1.04907 21.8512 0.430904 20.2716 0.429688ZM17.3606 35.9881H9.14222C8.54481 35.9881 8.06085 35.5114 8.06085 34.9235C8.06085 34.3354 8.54481 33.8589 9.14222 33.8589H17.3606C17.958 33.8589 18.442 34.3354 18.442 34.9235C18.442 35.5114 17.958 35.9881 17.3606 35.9881Z" fill="#F6F6F6"/>
<path d="M8.97553 24.1152L12.1991 13.7953H13.6137L13.3354 15.8477L10.0539 26.3416H8.67405L8.97553 24.1152ZM6.80718 13.7953L9.5553 24.2312L9.75243 26.3416H8.30299L4.66202 13.7953H6.80718ZM16.6981 24.15L19.3187 13.7953H21.4522L17.8113 26.3416H16.3734L16.6981 24.15ZM13.9268 13.7953L17.0808 23.9413L17.4402 26.3416H16.072L12.6977 15.8245L12.4194 13.7953H13.9268Z" fill="url(#paint0_linear_2_204)"/>
<defs>
<linearGradient id="paint0_linear_2_204" x1="4.09192" y1="32.3416" x2="29.5648" y2="15.9661" gradientUnits="userSpaceOnUse">
<stop stop-color="#EA719F"/>
<stop offset="1" stop-color="#D187A3"/>
</linearGradient>
</defs>
</svg>
