<svg width="32" height="32" viewBox="0 0 32 32" fill="none" xmlns="http://www.w3.org/2000/svg">
<path d="M14 21.3333C14 20.2288 14.8954 19.3333 16 19.3333C17.1045 19.3333 18 20.2288 18 21.3333C18 22.4379 17.1045 23.3333 16 23.3333C14.8954 23.3333 14 22.4379 14 21.3333Z" fill="white"/>
<path fill-rule="evenodd" clip-rule="evenodd" d="M10.1622 14.1295L9.74157 10.3442C9.68765 9.85892 9.68765 9.36914 9.74157 8.88384L9.77193 8.61064C10.0939 5.71279 12.372 3.41991 15.2678 3.07924C15.7542 3.02201 16.2457 3.02201 16.7321 3.07924C19.6278 3.41991 21.9059 5.71279 22.2279 8.61064L22.2583 8.88384C22.3122 9.36914 22.3122 9.85892 22.2583 10.3442L21.8377 14.1295L22.7532 14.2026C24.1968 14.3179 25.3756 15.4031 25.6096 16.8323C26.0977 19.8131 26.0977 22.8535 25.6096 25.8344C25.3756 27.2636 24.1968 28.3488 22.7532 28.4641L20.7583 28.6233C17.5911 28.8762 14.4088 28.8762 11.2417 28.6233L9.24683 28.4641C7.80319 28.3488 6.62438 27.2636 6.39036 25.8344C5.90227 22.8535 5.90227 19.8131 6.39036 16.8323C6.62438 15.4031 7.80319 14.3179 9.24683 14.2026L10.1622 14.1295ZM15.5014 5.06554C15.8326 5.02658 16.1672 5.02658 16.4984 5.06554C18.4699 5.29748 20.0209 6.85855 20.2402 8.8315L20.2705 9.1047C20.3081 9.44321 20.3081 9.78485 20.2705 10.1234L19.8423 13.9773C17.2834 13.8125 14.7165 13.8125 12.1576 13.9773L11.7293 10.1234C11.6917 9.78485 11.6917 9.44321 11.7293 9.1047L11.7597 8.8315C11.9789 6.85855 13.5299 5.29748 15.5014 5.06554ZM20.5992 16.037C17.5379 15.7926 14.4621 15.7926 11.4008 16.037L9.40598 16.1963C8.87941 16.2383 8.44944 16.6341 8.36408 17.1554C7.91103 19.9223 7.91103 22.7444 8.36408 25.5112C8.44944 26.0325 8.87941 26.4284 9.40599 26.4704L11.4008 26.6297C14.4621 26.874 17.5379 26.874 20.5992 26.6297L22.594 26.4704C23.1206 26.4284 23.5506 26.0325 23.6359 25.5112C24.089 22.7444 24.089 19.9223 23.6359 17.1554C23.5506 16.6341 23.1206 16.2383 22.594 16.1963L20.5992 16.037Z" fill="white"/>
</svg>
