<svg width="163" height="48" viewBox="0 0 163 48" fill="none" xmlns="http://www.w3.org/2000/svg">
<g filter="url(#filter0_d_2_305)">
<path d="M4.83365 16.7665H6.05562L6.7777 4.81872L10.7028 16.7665H14.017L17.6459 4.87404L18.4235 16.7665H21.571L20.5897 1.66583H17.4422L13.406 14.9043L9.05501 1.66583H5.74087L4.83365 16.7665Z" fill="#323232"/>
<path d="M22.8439 16.7665H24.0288L25.3804 12.3967H31.0644L32.5086 16.7665H35.8227L30.8237 1.66583H27.5096L22.8439 16.7665ZM25.6951 11.3826L28.1206 3.50962L30.7311 11.3826H25.6951Z" fill="#323232"/>
<path d="M37.4665 16.7665H40.614V10.0736H42.0396L47.3163 16.7665H51.2229L45.4278 9.50197C47.0941 8.85664 48.0014 7.65817 48.0014 5.86969C48.0014 3.04867 45.724 1.66583 41.7989 1.66583H37.4665V16.7665ZM41.7989 2.67992C44.0207 2.67992 44.7613 3.50962 44.7613 5.85125C44.7613 8.19287 44.0207 9.05946 41.7989 9.05946H40.614V2.67992H41.7989Z" fill="#323232"/>
<path d="M56.0075 16.7665V10.5161L57.0258 9.4651L62.7839 16.7665H66.6905L59.118 7.25254L64.4502 1.66583H62.858L56.0075 9.00415V1.66583H52.86V16.7665H56.0075Z" fill="#323232"/>
<path d="M68.47 16.7665H78.3939V15.6603H71.6175V9.48353H77.1719V8.41413H71.6175V2.7721H78.2458V1.66583H68.47V16.7665Z" fill="#323232"/>
<path d="M80.0368 1.66583V2.7721H86.1466V16.7665H89.2941V2.7721H95.404V1.66583H80.0368Z" fill="#323232"/>
<path d="M100.561 16.7665V10.0736H101.746C105.671 10.0736 107.948 8.6907 107.948 5.86969C107.948 3.04867 105.671 1.66583 101.746 1.66583H97.4134V16.7665H100.561ZM101.746 2.67992C103.968 2.67992 104.708 3.50962 104.708 5.85125C104.708 8.19287 103.968 9.05946 101.746 9.05946H100.561V2.67992H101.746Z" fill="#323232"/>
<path d="M110.247 16.7665H120.171V15.6603H113.394V1.66583H110.247V16.7665Z" fill="#323232"/>
<path d="M120.987 16.7665H122.172L123.524 12.3967H129.208L130.652 16.7665H133.966L128.967 1.66583H125.653L120.987 16.7665ZM123.838 11.3826L126.264 3.50962L128.874 11.3826H123.838Z" fill="#323232"/>
<path d="M145.823 14.3696C145.823 14.3696 144.786 15.9368 141.731 15.9368C139.62 15.9368 137.732 14.554 137.732 9.13321C137.732 3.71244 139.639 2.49553 141.731 2.49553C144.619 2.49553 145.6 4.15495 145.6 4.15495L146.526 3.12243C146.526 3.12243 144.934 1.48145 141.731 1.48145C139.083 1.48145 134.306 3.12243 134.306 9.13321C134.306 15.144 139.065 16.9509 141.731 16.9509C144.971 16.9509 146.841 15.5128 146.841 15.5128L145.823 14.3696Z" fill="#323232"/>
<path d="M148.898 16.7665H158.822V15.6603H152.046V9.48353H157.6V8.41413H152.046V2.7721H158.674V1.66583H148.898V16.7665Z" fill="#323232"/>
<path d="M26.0753 40.3151H27.3826L28.8737 35.494H35.1447L36.738 40.3151H40.3944L34.8792 23.655H31.2228L26.0753 40.3151ZM29.221 34.3752L31.8969 25.6892L34.777 34.3752H29.221Z" fill="black"/>
<path d="M26.0753 40.3151H27.3826L28.8737 35.494H35.1447L36.738 40.3151H40.3944L34.8792 23.655H31.2228L26.0753 40.3151ZM29.221 34.3752L31.8969 25.6892L34.777 34.3752H29.221Z" fill="url(#paint0_linear_2_305)"/>
<path d="M53.4754 37.6706C53.4754 37.6706 52.3315 39.3997 48.9611 39.3997C46.6324 39.3997 44.5489 37.874 44.5489 31.8935C44.5489 25.913 46.6529 24.5704 48.9611 24.5704C52.1476 24.5704 53.2302 26.4012 53.2302 26.4012L54.2516 25.262C54.2516 25.262 52.4949 23.4516 48.9611 23.4516C46.0401 23.4516 40.77 25.262 40.77 31.8935C40.77 38.525 46.0196 40.5185 48.9611 40.5185C52.5357 40.5185 54.5988 38.9318 54.5988 38.9318L53.4754 37.6706Z" fill="black"/>
<path d="M53.4754 37.6706C53.4754 37.6706 52.3315 39.3997 48.9611 39.3997C46.6324 39.3997 44.5489 37.874 44.5489 31.8935C44.5489 25.913 46.6529 24.5704 48.9611 24.5704C52.1476 24.5704 53.2302 26.4012 53.2302 26.4012L54.2516 25.262C54.2516 25.262 52.4949 23.4516 48.9611 23.4516C46.0401 23.4516 40.77 25.262 40.77 31.8935C40.77 38.525 46.0196 40.5185 48.9611 40.5185C52.5357 40.5185 54.5988 38.9318 54.5988 38.9318L53.4754 37.6706Z" fill="url(#paint1_linear_2_305)"/>
<path d="M55.3977 40.3151H56.705L58.1961 35.494H64.4671L66.0604 40.3151H69.7167L64.2016 23.655H60.5452L55.3977 40.3151ZM58.5434 34.3752L61.2193 25.6892L64.0994 34.3752H58.5434Z" fill="black"/>
<path d="M55.3977 40.3151H56.705L58.1961 35.494H64.4671L66.0604 40.3151H69.7167L64.2016 23.655H60.5452L55.3977 40.3151ZM58.5434 34.3752L61.2193 25.6892L64.0994 34.3752H58.5434Z" fill="url(#paint2_linear_2_305)"/>
<path d="M71.5302 23.655V40.3151H78.414C81.335 40.3151 86.5846 38.525 86.5846 31.8935C86.5846 25.262 81.335 23.655 78.414 23.655H71.5302ZM75.0028 39.1963V24.7738H78.414C80.7222 24.7738 82.9079 25.8926 82.9079 31.8732C82.9079 37.8537 80.7222 39.1963 78.414 39.1963H75.0028Z" fill="black"/>
<path d="M71.5302 23.655V40.3151H78.414C81.335 40.3151 86.5846 38.525 86.5846 31.8935C86.5846 25.262 81.335 23.655 78.414 23.655H71.5302ZM75.0028 39.1963V24.7738H78.414C80.7222 24.7738 82.9079 25.8926 82.9079 31.8732C82.9079 37.8537 80.7222 39.1963 78.414 39.1963H75.0028Z" fill="url(#paint3_linear_2_305)"/>
<path d="M89.4702 40.3151H100.419V39.0945H92.9427V32.28H99.0707V31.1002H92.9427V24.8755H100.255V23.655H89.4702V40.3151Z" fill="black"/>
<path d="M89.4702 40.3151H100.419V39.0945H92.9427V32.28H99.0707V31.1002H92.9427V24.8755H100.255V23.655H89.4702V40.3151Z" fill="url(#paint4_linear_2_305)"/>
<path d="M102.742 40.3151H104.09L104.887 27.1335L109.217 40.3151H112.874L116.877 27.1945L117.735 40.3151H121.208L120.125 23.655H116.653L112.2 38.2605L107.399 23.655H103.743L102.742 40.3151Z" fill="black"/>
<path d="M102.742 40.3151H104.09L104.887 27.1335L109.217 40.3151H112.874L116.877 27.1945L117.735 40.3151H121.208L120.125 23.655H116.653L112.2 38.2605L107.399 23.655H103.743L102.742 40.3151Z" fill="url(#paint5_linear_2_305)"/>
<path d="M123.94 40.3151H127.31V23.655H123.94V40.3151Z" fill="black"/>
<path d="M123.94 40.3151H127.31V23.655H123.94V40.3151Z" fill="url(#paint6_linear_2_305)"/>
<path d="M142.759 37.6706C142.759 37.6706 141.615 39.3997 138.245 39.3997C135.916 39.3997 133.833 37.874 133.833 31.8935C133.833 25.913 135.937 24.5704 138.245 24.5704C141.431 24.5704 142.514 26.4012 142.514 26.4012L143.535 25.262C143.535 25.262 141.779 23.4516 138.245 23.4516C135.324 23.4516 130.054 25.262 130.054 31.8935C130.054 38.525 135.303 40.5185 138.245 40.5185C141.819 40.5185 143.883 38.9318 143.883 38.9318L142.759 37.6706Z" fill="black"/>
<path d="M142.759 37.6706C142.759 37.6706 141.615 39.3997 138.245 39.3997C135.916 39.3997 133.833 37.874 133.833 31.8935C133.833 25.913 135.937 24.5704 138.245 24.5704C141.431 24.5704 142.514 26.4012 142.514 26.4012L143.535 25.262C143.535 25.262 141.779 23.4516 138.245 23.4516C135.324 23.4516 130.054 25.262 130.054 31.8935C130.054 38.525 135.303 40.5185 138.245 40.5185C141.819 40.5185 143.883 38.9318 143.883 38.9318L142.759 37.6706Z" fill="url(#paint7_linear_2_305)"/>
<path d="M144.681 40.3151H145.989L147.48 35.494H153.751L155.344 40.3151H159L153.485 23.655H149.829L144.681 40.3151ZM147.827 34.3752L150.503 25.6892L153.383 34.3752H147.827Z" fill="black"/>
<path d="M144.681 40.3151H145.989L147.48 35.494H153.751L155.344 40.3151H159L153.485 23.655H149.829L144.681 40.3151ZM147.827 34.3752L150.503 25.6892L153.383 34.3752H147.827Z" fill="url(#paint8_linear_2_305)"/>
<path d="M4.25556 29.4562H21.1465C21.3586 29.4562 21.3901 29.3562 21.2177 29.233L13.0152 23.4191C12.8428 23.2976 12.5612 23.2976 12.3872 23.4191L4.18416 29.233C4.01184 29.3562 4.04346 29.4562 4.25556 29.4562ZM6.09163 28.6282L12.3867 24.167C12.5607 24.0436 12.8424 24.0436 13.0147 24.167L19.3084 28.6282C19.4824 28.7499 19.4494 28.8484 19.2371 28.8484L6.16606 28.8482C5.95396 28.8482 5.92067 28.7499 6.09163 28.6282Z" fill="url(#paint9_linear_2_305)"/>
<path d="M8.1183 30.8987C8.25896 30.8987 8.37356 30.7278 8.37356 30.5175V30.2923C8.37356 30.0819 8.19955 29.9092 7.98745 29.9092H5.84314C5.63273 29.9092 5.45872 30.0819 5.45872 30.2923V30.5175C5.45872 30.7278 5.57298 30.8987 5.71398 30.8987C5.85651 30.8987 5.97077 31.0697 5.97077 31.2799V36.3053C5.97077 36.5157 5.85651 36.6883 5.71398 36.6883C5.57298 36.6883 5.45872 36.8592 5.45872 37.0695V37.2931C5.45872 37.5034 5.63273 37.6759 5.84314 37.6759H7.98728C8.19937 37.6759 8.37338 37.5034 8.37338 37.2931V37.0695C8.37338 36.8592 8.25879 36.6883 8.11813 36.6883C7.97712 36.6883 7.86117 36.5157 7.86117 36.3053L7.861 31.2799C7.86134 31.0699 7.9773 30.8987 8.1183 30.8987Z" fill="url(#paint10_linear_2_305)"/>
<path d="M12.004 30.8987C12.1465 30.8987 12.261 30.7278 12.261 30.5175V30.2923C12.261 30.0819 12.0869 29.9092 11.8748 29.9092H9.73054C9.51844 29.9092 9.34443 30.0819 9.34443 30.2923V30.5175C9.34443 30.7278 9.46038 30.8987 9.60138 30.8987C9.74239 30.8987 9.85647 31.0697 9.85647 31.2799V36.3053C9.85647 36.5157 9.74222 36.6883 9.60138 36.6883C9.46072 36.6883 9.34443 36.8592 9.34443 37.0695V37.2931C9.34443 37.5034 9.51844 37.6759 9.73054 37.6759H11.8747C12.0868 37.6759 12.2608 37.5034 12.2608 37.2931V37.0695C12.2608 36.8592 12.1462 36.6883 12.0038 36.6883C11.8628 36.6883 11.7469 36.5157 11.7469 36.3053V31.2799C11.7474 31.0699 11.8633 30.8987 12.004 30.8987Z" fill="url(#paint11_linear_2_305)"/>
<path d="M15.8919 30.8987C16.0344 30.8987 16.1471 30.7278 16.1471 30.5175V30.2923C16.1471 30.0819 15.9731 29.9092 15.7627 29.9092H13.6186C13.4065 29.9092 13.2325 30.0819 13.2325 30.2923V30.5175C13.2325 30.7278 13.3467 30.8987 13.4894 30.8987C13.6287 30.8987 13.7445 31.0697 13.7445 31.2799V36.3053C13.7445 36.5157 13.6286 36.6883 13.4894 36.6883C13.3469 36.6883 13.2325 36.8592 13.2325 37.0695V37.2931C13.2325 37.5034 13.4065 37.6759 13.6186 37.6759H15.7627C15.9731 37.6759 16.1471 37.5034 16.1471 37.2931V37.0695C16.1471 36.8592 16.0342 36.6883 15.8919 36.6883C15.7509 36.6883 15.6349 36.5157 15.6349 36.3053V31.2799C15.6349 31.0699 15.7509 30.8987 15.8919 30.8987Z" fill="url(#paint12_linear_2_305)"/>
<path d="M19.7793 30.8987C19.9183 30.8987 20.0346 30.7278 20.0346 30.5175V30.2923C20.0346 30.0819 19.8606 29.9092 19.6502 29.9092H17.506C17.2939 29.9092 17.1182 30.0819 17.1182 30.2923V30.5175C17.1182 30.7278 17.2342 30.8987 17.3767 30.8987C17.5143 30.8987 17.6301 31.0697 17.6301 31.2799V36.3053C17.6301 36.5157 17.5141 36.6883 17.3767 36.6883C17.2342 36.6883 17.1182 36.8592 17.1182 37.0695V37.2931C17.1182 37.5034 17.2939 37.6759 17.506 37.6759H19.6502C19.8606 37.6759 20.0346 37.5034 20.0346 37.2931V37.0695C20.0346 36.8592 19.9183 36.6883 19.7793 36.6883C19.6368 36.6883 19.5224 36.5157 19.5224 36.3053V31.2799C19.5227 31.0699 19.637 30.8987 19.7793 30.8987Z" fill="url(#paint13_linear_2_305)"/>
<path d="M21.198 39.6642C21.0851 39.6642 20.9942 39.5489 20.9942 39.4077C20.9942 39.2701 20.8813 39.1531 20.7458 39.1531C20.6081 39.1531 20.4956 39.0395 20.4956 38.8983C20.4956 38.757 20.3927 38.642 20.2654 38.642C20.1377 38.642 20.0352 38.5267 20.0352 38.3872C20.0352 38.2477 19.8611 38.1324 19.6507 38.1324L5.75329 38.1322C5.54119 38.1322 5.36718 38.2476 5.36718 38.387C5.36718 38.5265 5.26291 38.6418 5.13697 38.6418C5.01103 38.6418 4.90676 38.7572 4.90676 38.8981C4.90676 39.0391 4.79555 39.1529 4.65827 39.1529C4.5193 39.1529 4.40809 39.2696 4.40809 39.4076C4.40809 39.5491 4.31702 39.6641 4.20429 39.6641C4.09308 39.6641 4.00049 39.779 4.00049 39.92C4.00049 40.0615 4.1745 40.1765 4.3866 40.1765H21.018C21.23 40.1765 21.4024 40.0612 21.4024 39.92C21.402 39.7792 21.3106 39.6642 21.198 39.6642Z" fill="url(#paint14_linear_2_305)"/>
<path d="M6.80096 28.6476H18.6015C18.8136 28.6476 18.8468 28.5489 18.6728 28.424L13.0156 24.4143C12.8433 24.293 12.5616 24.293 12.3876 24.4143L6.73 28.424C6.55599 28.5489 6.5887 28.6476 6.80096 28.6476Z" fill="url(#paint15_linear_2_305)"/>
</g>
<defs>
<filter id="filter0_d_2_305" x="0.000488281" y="0.481445" width="163" height="47.0371" filterUnits="userSpaceOnUse" color-interpolation-filters="sRGB">
<feFlood flood-opacity="0" result="BackgroundImageFix"/>
<feColorMatrix in="SourceAlpha" type="matrix" values="0 0 0 0 0 0 0 0 0 0 0 0 0 0 0 0 0 0 127 0" result="hardAlpha"/>
<feOffset dy="3"/>
<feGaussianBlur stdDeviation="2"/>
<feComposite in2="hardAlpha" operator="out"/>
<feColorMatrix type="matrix" values="0 0 0 0 0 0 0 0 0 0 0 0 0 0 0 0 0 0 0.23 0"/>
<feBlend mode="normal" in2="BackgroundImageFix" result="effect1_dropShadow_2_305"/>
<feBlend mode="normal" in="SourceGraphic" in2="effect1_dropShadow_2_305" result="shape"/>
</filter>
<linearGradient id="paint0_linear_2_305" x1="-1.23264" y1="15.4905" x2="19.0579" y2="-28.0546" gradientUnits="userSpaceOnUse">
<stop stop-color="#5042AF"/>
<stop offset="1" stop-color="#6742D1"/>
</linearGradient>
<linearGradient id="paint1_linear_2_305" x1="-1.23264" y1="15.4905" x2="19.0579" y2="-28.0546" gradientUnits="userSpaceOnUse">
<stop stop-color="#5042AF"/>
<stop offset="1" stop-color="#6742D1"/>
</linearGradient>
<linearGradient id="paint2_linear_2_305" x1="-1.23264" y1="15.4905" x2="19.0579" y2="-28.0546" gradientUnits="userSpaceOnUse">
<stop stop-color="#5042AF"/>
<stop offset="1" stop-color="#6742D1"/>
</linearGradient>
<linearGradient id="paint3_linear_2_305" x1="-1.23264" y1="15.4905" x2="19.0579" y2="-28.0546" gradientUnits="userSpaceOnUse">
<stop stop-color="#5042AF"/>
<stop offset="1" stop-color="#6742D1"/>
</linearGradient>
<linearGradient id="paint4_linear_2_305" x1="-1.23264" y1="15.4905" x2="19.0579" y2="-28.0546" gradientUnits="userSpaceOnUse">
<stop stop-color="#5042AF"/>
<stop offset="1" stop-color="#6742D1"/>
</linearGradient>
<linearGradient id="paint5_linear_2_305" x1="-1.23264" y1="15.4905" x2="19.0579" y2="-28.0546" gradientUnits="userSpaceOnUse">
<stop stop-color="#5042AF"/>
<stop offset="1" stop-color="#6742D1"/>
</linearGradient>
<linearGradient id="paint6_linear_2_305" x1="-1.23264" y1="15.4905" x2="19.0579" y2="-28.0546" gradientUnits="userSpaceOnUse">
<stop stop-color="#5042AF"/>
<stop offset="1" stop-color="#6742D1"/>
</linearGradient>
<linearGradient id="paint7_linear_2_305" x1="-1.23264" y1="15.4905" x2="19.0579" y2="-28.0546" gradientUnits="userSpaceOnUse">
<stop stop-color="#5042AF"/>
<stop offset="1" stop-color="#6742D1"/>
</linearGradient>
<linearGradient id="paint8_linear_2_305" x1="-1.23264" y1="15.4905" x2="19.0579" y2="-28.0546" gradientUnits="userSpaceOnUse">
<stop stop-color="#5042AF"/>
<stop offset="1" stop-color="#6742D1"/>
</linearGradient>
<linearGradient id="paint9_linear_2_305" x1="6.20736" y1="25.875" x2="8.90254" y2="21.7765" gradientUnits="userSpaceOnUse">
<stop stop-color="#6557C6"/>
<stop offset="1" stop-color="#7D56EC"/>
</linearGradient>
<linearGradient id="paint10_linear_2_305" x1="6.20736" y1="25.875" x2="8.90254" y2="21.7765" gradientUnits="userSpaceOnUse">
<stop stop-color="#6557C6"/>
<stop offset="1" stop-color="#7D56EC"/>
</linearGradient>
<linearGradient id="paint11_linear_2_305" x1="6.20736" y1="25.875" x2="8.90254" y2="21.7765" gradientUnits="userSpaceOnUse">
<stop stop-color="#6557C6"/>
<stop offset="1" stop-color="#7D56EC"/>
</linearGradient>
<linearGradient id="paint12_linear_2_305" x1="6.20736" y1="25.875" x2="8.90254" y2="21.7765" gradientUnits="userSpaceOnUse">
<stop stop-color="#6557C6"/>
<stop offset="1" stop-color="#7D56EC"/>
</linearGradient>
<linearGradient id="paint13_linear_2_305" x1="6.20736" y1="25.875" x2="8.90254" y2="21.7765" gradientUnits="userSpaceOnUse">
<stop stop-color="#6557C6"/>
<stop offset="1" stop-color="#7D56EC"/>
</linearGradient>
<linearGradient id="paint14_linear_2_305" x1="6.20736" y1="25.875" x2="8.90254" y2="21.7765" gradientUnits="userSpaceOnUse">
<stop stop-color="#6557C6"/>
<stop offset="1" stop-color="#7D56EC"/>
</linearGradient>
<linearGradient id="paint15_linear_2_305" x1="6.20736" y1="25.875" x2="8.90254" y2="21.7765" gradientUnits="userSpaceOnUse">
<stop stop-color="#6557C6"/>
<stop offset="1" stop-color="#7D56EC"/>
</linearGradient>
</defs>
</svg>
