<svg width="40" height="40" viewBox="0 0 40 40" fill="none" xmlns="http://www.w3.org/2000/svg">
<path fill-rule="evenodd" clip-rule="evenodd" d="M18.75 9.6472C12.6639 10.2727 7.91669 15.4153 7.91669 21.6667C7.91669 28.3401 13.3266 33.75 20 33.75C26.2514 33.75 31.394 29.0028 32.0195 22.9167H20C19.3097 22.9167 18.75 22.357 18.75 21.6667V9.6472ZM5.41669 21.6667C5.41669 13.6125 11.9459 7.08333 20 7.08333C20.6904 7.08333 21.25 7.64298 21.25 8.33333V20.4167H33.3334C34.0237 20.4167 34.5834 20.9763 34.5834 21.6667C34.5834 29.7208 28.0542 36.25 20 36.25C11.9459 36.25 5.41669 29.7208 5.41669 21.6667Z" fill="white"/>
<path fill-rule="evenodd" clip-rule="evenodd" d="M25.8334 7.78941V15.8333H33.8773C32.9389 11.8593 29.8074 8.72778 25.8334 7.78941ZM24.9967 5.10274C31.0306 5.85362 35.8131 10.6361 36.5639 16.67C36.6776 17.5834 35.9205 18.3333 35 18.3333H24.1667C23.7064 18.3333 23.3334 17.9602 23.3334 17.5V6.66666C23.3334 5.74619 24.0833 4.98907 24.9967 5.10274Z" fill="white"/>
</svg>
