<svg width="33" height="33" viewBox="0 0 33 33" fill="none" xmlns="http://www.w3.org/2000/svg">
<path d="M8.87346 28.3313L5.58484 31.6194C4.48355 32.7207 2.72839 32.7515 1.66467 31.6878L0.80889 30.832C-0.254251 29.7686 -0.223119 28.0135 0.87818 26.9122L4.16621 23.6235L8.87346 28.3313ZM29.2921 18.5326C25.881 21.9436 20.7625 22.6037 16.6892 20.5165L10.6018 26.6033L5.89458 21.896L11.9819 15.8087C9.89504 11.7346 10.5548 6.61659 13.9659 3.20577C18.198 -1.0266 25.0599 -1.0266 29.2925 3.20577C33.5249 7.43755 33.5249 14.2998 29.2922 18.5324L29.2921 18.5326ZM26.368 6.12875C23.7506 3.5113 19.5063 3.5113 16.8885 6.12904C14.2711 8.74649 14.2711 12.9907 16.8885 15.6085C19.5065 18.2266 23.7508 18.2266 26.368 15.6088C28.9858 12.9908 28.9858 8.74685 26.3677 6.1286L26.368 6.12875Z" fill="#F6F6F6"/>
</svg>
