<svg width="40" height="40" viewBox="0 0 40 40" fill="none" xmlns="http://www.w3.org/2000/svg">
<path fill-rule="evenodd" clip-rule="evenodd" d="M12.9166 12.5C12.9166 8.58798 16.088 5.41666 20 5.41666C23.912 5.41666 27.0833 8.58798 27.0833 12.5C27.0833 16.412 23.912 19.5833 20 19.5833C16.088 19.5833 12.9166 16.412 12.9166 12.5ZM20 7.91666C17.4687 7.91666 15.4166 9.96869 15.4166 12.5C15.4166 15.0313 17.4687 17.0833 20 17.0833C22.5313 17.0833 24.5833 15.0313 24.5833 12.5C24.5833 9.96869 22.5313 7.91666 20 7.91666Z" fill="black"/>
<path fill-rule="evenodd" clip-rule="evenodd" d="M13.3333 24.5833C11.2622 24.5833 9.58331 26.2623 9.58331 28.3333V30.3138C9.58331 30.344 9.60517 30.3697 9.63493 30.3745C16.4995 31.4953 23.5004 31.4953 30.365 30.3745C30.3948 30.3697 30.4166 30.344 30.4166 30.3138V28.3333C30.4166 26.2623 28.7377 24.5833 26.6666 24.5833H26.0985C26.0546 24.5833 26.011 24.5903 25.9692 24.6039L24.5267 25.0749C21.5853 26.0354 18.4147 26.0354 15.4733 25.0749L14.0308 24.6039C13.989 24.5903 13.9454 24.5833 13.9014 24.5833H13.3333ZM7.08331 28.3333C7.08331 24.8816 9.88153 22.0833 13.3333 22.0833H13.9014C14.2089 22.0833 14.5145 22.132 14.8068 22.2274L16.2493 22.6984C18.6864 23.4942 21.3135 23.4942 23.7507 22.6984L25.1932 22.2274C25.4855 22.132 25.791 22.0833 26.0985 22.0833H26.6666C30.1184 22.0833 32.9166 24.8816 32.9166 28.3333V30.3138C32.9166 31.5692 32.0068 32.6396 30.7679 32.8419C23.6365 34.0062 16.3635 34.0062 9.2321 32.8419C7.99312 32.6396 7.08331 31.5692 7.08331 30.3138V28.3333Z" fill="black"/>
</svg>
