<svg width="30" height="30" viewBox="0 0 30 30" fill="none" xmlns="http://www.w3.org/2000/svg">
<path fill-rule="evenodd" clip-rule="evenodd" d="M11.2388 7.48057L19.8654 2.5L22.7481 7.49307L11.2388 7.48057Z" stroke="white" stroke-width="2.5" stroke-linecap="round" stroke-linejoin="round"/>
<path d="M2.5 8.75C2.5 8.05964 3.05964 7.5 3.75 7.5H26.25C26.9404 7.5 27.5 8.05964 27.5 8.75V26.25C27.5 26.9404 26.9404 27.5 26.25 27.5H3.75C3.05964 27.5 2.5 26.9404 2.5 26.25V8.75Z" stroke="white" stroke-width="2.5" stroke-linejoin="round"/>
<path d="M22.0312 20.625H27.5V14.375H22.0312C20.2191 14.375 18.75 15.7741 18.75 17.5C18.75 19.2259 20.2191 20.625 22.0312 20.625Z" stroke="white" stroke-width="2.5" stroke-linejoin="round"/>
<path d="M27.5 10.3125V25.3125" stroke="white" stroke-width="2.5" stroke-linecap="round"/>
</svg>
